<svg xmlns="http://www.w3.org/2000/svg" width="16" height="16" viewBox="0 0 16 16">
        <path fill-rule="evenodd" clip-rule="evenodd" d="M7.99992 1.99982C10.2056 1.99982 11.9999 3.79413 11.9999 5.99984V9.99984H3.99992V5.99984C3.99992 3.79413 5.79437 1.99982 7.99992 1.99982ZM13.9999 5.99984V9.99984H14.9999C15.5522 9.99984 15.9999 10.4476 15.9999 10.9998C15.9999 11.5521 15.5522 11.9998 14.9999 11.9998H13.9999H1.99992H0.99992C0.447632 11.9998 -8e-05 11.5521 -8e-05 10.9998C-8e-05 10.4476 0.447632 9.99984 0.99992 9.99984H1.99992V5.99984C1.99992 2.68619 4.68618 -0.000256 7.99992 -0.000256C11.3137 -0.000256 13.9999 2.68619 13.9999 5.99984ZM5.99992 13.9998C5.99992 15.1043 6.89534 15.9999 7.99992 15.9999C9.1045 15.9999 9.99992 15.1043 9.99992 13.9998V12.9997H5.99992V13.9998Z" fill="currentColor"/>
</svg>
